<?xml version="1.0" encoding="utf-8"?>
<!-- Generator: Adobe Illustrator 19.0.0, SVG Export Plug-In . SVG Version: 6.00 Build 0)  -->
<svg version="1.1" id="图层_1" xmlns="http://www.w3.org/2000/svg" xmlns:xlink="http://www.w3.org/1999/xlink" x="0px" y="0px"
	 viewBox="0 0 50 58" style="enable-background:new 0 0 50 58;" xml:space="preserve">
<style type="text/css">
	.st0{fill:#389FCC;}
	.st1{fill:#FFFFFF;}
	.st2{fill:none;stroke:#FFFFFF;stroke-width:2;stroke-miterlimit:10;}
	.st3{fill:none;}
</style>
<path id="XMLID_10_" class="st0" d="M49.2,25c0,2.2-0.1,3.2-0.9,6.4C45.9,41,37.3,45.1,25,57.2C19,49.4,4.5,41.7,1.7,31.5
	c-0.6-2-0.9-4.2-0.9-6.4C0.8,11.7,11.6,0.9,25,0.9C38.3,0.9,49.2,11.7,49.2,25z"/>
<g id="XMLID_2_">
	<g id="XMLID_4_">
		<rect id="XMLID_9_" x="12.1" y="13.4" class="st1" width="5.5" height="21.9"/>
		<rect id="XMLID_8_" x="24" y="13.4" class="st1" width="5.5" height="21.9"/>
		<rect id="XMLID_7_" x="16.9" y="21.8" class="st1" width="8.4" height="4.5"/>
		<rect id="XMLID_6_" x="33.6" y="13.4" class="st1" width="4.3" height="3.8"/>
		<rect id="XMLID_5_" x="33.6" y="19.9" class="st1" width="4.3" height="15.4"/>
	</g>
	<circle id="XMLID_3_" class="st2" cx="25" cy="24.4" r="21.3"/>
</g>
<rect id="_x3C_切片_x3E__1_" x="0.7" y="0.8" class="st3" width="48.6" height="56.4"/>
</svg>
