<?xml version="1.0" encoding="utf-8"?>
<!-- Generator: Adobe Illustrator 19.0.0, SVG Export Plug-In . SVG Version: 6.00 Build 0)  -->
<svg version="1.1" id="图层_1" xmlns="http://www.w3.org/2000/svg" xmlns:xlink="http://www.w3.org/1999/xlink" x="0px" y="0px"
	 viewBox="0 0 50 58" style="enable-background:new 0 0 50 58;" xml:space="preserve">
<style type="text/css">
	.st0{fill:#389FCC;stroke:#3A96BF;stroke-miterlimit:10;}
	.st1{fill:#FFFFFF;stroke:#3A96BF;stroke-miterlimit:10;}
	.st2{fill:#389FCC;}
	.st3{fill:none;}
</style>
<path id="XMLID_9_" class="st0" d="M49.2,25c0,2.2,0,3.3-1,6.5c-2.6,8.1-11,13.6-23.2,25.7C19,49.4,4.5,41.7,1.7,31.5
	c-0.6-2-0.9-4.2-0.9-6.4C0.8,11.7,11.6,0.9,25,0.9S49.2,11.6,49.2,25z"/>
<circle id="XMLID_8_" class="st1" cx="25" cy="23.8" r="20.1"/>
<g id="XMLID_2_">
	<rect id="XMLID_7_" x="12.1" y="12.9" class="st2" width="5.5" height="21.9"/>
	<rect id="XMLID_6_" x="24" y="12.9" class="st2" width="5.5" height="21.9"/>
	<rect id="XMLID_5_" x="16.9" y="21.3" class="st2" width="8.4" height="4.5"/>
	<rect id="XMLID_4_" x="33.6" y="12.9" class="st2" width="4.3" height="3.8"/>
	<rect id="XMLID_3_" x="33.6" y="19.4" class="st2" width="4.3" height="15.4"/>
</g>
<rect id="_x3C_切片_x3E_" x="0.1" y="0.2" class="st3" width="49.8" height="57.8"/>
</svg>
